<svg version="1.1" id="Layer_1" xmlns="http://www.w3.org/2000/svg" xmlns:xlink="http://www.w3.org/1999/xlink" x="0px" y="0px"
	 width="100%" viewBox="0 0 512 512" enable-background="new 0 0 512 512" xml:space="preserve">
<path fill="transparent" opacity="1.000000" stroke="none" 
	d="
M513.000000,380.000000 
	C513.000000,424.311066 513.000000,468.622162 513.000000,512.966614 
	C342.441254,512.966614 171.882523,512.966614 1.000000,512.966614 
	C1.000000,437.646088 1.000000,362.291687 1.269868,286.134399 
	C2.294307,286.369873 3.396283,287.302032 3.751061,288.462646 
	C8.672080,304.560638 27.765789,318.269440 45.946167,317.115387 
	C56.189777,316.465179 66.507401,316.980896 76.887039,317.326691 
	C82.648849,326.376587 89.654045,333.765076 97.721436,340.340637 
	C113.201744,352.958313 130.991837,361.026245 150.595474,361.659943 
	C186.024033,362.805145 221.519180,361.890747 257.450500,361.912750 
	C290.867493,361.994019 323.820740,361.927399 356.773285,362.047485 
	C366.635315,362.083435 376.076141,360.080658 385.393921,357.208771 
	C398.202759,353.260895 409.724976,346.695709 419.481598,337.717133 
	C426.138428,331.591095 431.380798,323.928040 437.707581,316.977905 
	C444.961670,317.002411 451.775482,317.251678 458.562897,316.935303 
	C466.694397,316.556305 474.803436,315.694489 482.951324,315.507812 
	C482.986908,329.289978 483.134979,342.608337 482.927765,355.921143 
	C482.848663,361.004456 482.229156,366.121277 481.381958,371.142853 
	C478.882629,385.957550 471.110046,397.841003 459.923462,407.486298 
	C450.060150,415.990662 438.409271,421.348022 425.429077,421.819611 
	C406.979034,422.489868 388.484650,421.939972 369.864716,421.599792 
	C362.326508,406.071289 350.325867,398.538757 333.257050,398.949402 
	C322.108459,399.217621 310.948059,398.973877 299.793243,399.024689 
	C297.822418,399.033661 295.784790,399.099396 293.893707,399.587250 
	C277.593353,403.792480 268.012390,414.188385 264.541046,430.728455 
	C260.567139,449.663300 275.683502,472.403168 294.835388,473.763275 
	C310.645477,474.886078 326.689819,475.021912 342.460480,473.646820 
	C354.780090,472.572723 363.885223,464.759918 369.481476,453.051971 
	C387.913330,453.014618 405.878448,452.959930 423.843201,453.017456 
	C434.902435,453.052887 445.465332,450.474335 455.432617,446.105103 
	C484.006409,433.579468 503.026428,412.536011 511.062408,382.040039 
	C511.271881,381.245026 512.334961,380.674957 513.000000,380.000000 
z"/>
<path fill="transparent" opacity="1.000000" stroke="none" 
	d="
M1.000000,197.000000 
	C1.000000,131.698288 1.000000,66.396568 1.000000,1.047425 
	C171.552444,1.047425 342.104889,1.047425 513.000000,1.047425 
	C513.000000,66.020493 513.000000,131.041595 512.706665,196.840927 
	C511.607880,196.239426 510.583801,194.941681 510.030548,193.467270 
	C504.261993,178.093613 486.788788,165.578354 471.019073,165.951294 
	C461.706177,166.171539 452.381836,165.907364 443.042542,165.402588 
	C443.014435,136.676224 443.021179,108.408287 442.990356,80.140381 
	C442.979462,70.148445 437.054077,64.009666 427.531372,64.002174 
	C417.986145,63.994667 412.055573,70.122635 412.004211,80.085976 
	C411.947693,91.059120 411.918854,102.032394 411.558441,112.883827 
	C403.091003,104.267731 395.228180,95.474731 386.722076,87.355705 
	C376.398590,77.501984 364.455261,69.759155 351.909149,62.980980 
	C334.706970,53.687313 316.585876,46.616055 297.344330,43.297840 
	C284.050049,41.005230 270.451904,40.474384 256.536865,39.084068 
	C251.181534,39.341183 246.259796,39.497841 241.380463,40.037643 
	C232.664764,41.001873 223.737015,41.294132 215.329254,43.506527 
	C202.544907,46.870560 189.963287,51.197964 177.592514,55.897846 
	C156.048996,64.082619 137.515518,77.216309 120.801315,92.857758 
	C114.138107,99.093307 108.346535,106.260269 102.099594,112.538239 
	C102.026932,101.578354 102.013962,91.083458 101.998413,80.588554 
	C101.982979,70.172874 96.249435,64.016129 86.555641,64.002312 
	C76.812538,63.988422 71.014107,70.090553 71.003471,80.406860 
	C70.974113,108.893097 70.956177,137.379349 70.472473,165.924011 
	C61.874199,165.988312 53.688602,166.566818 45.610226,165.881500 
	C28.535816,164.433029 8.646709,178.294785 3.791612,194.431183 
	C3.478116,195.473114 1.958535,196.152145 1.000000,197.000000 
z"/>
<path fill="#4793FF" opacity="1.000000" stroke="none" 
	d="
M1.000000,197.468658 
	C1.958535,196.152145 3.478116,195.473114 3.791612,194.431183 
	C8.646709,178.294785 28.535816,164.433029 45.610226,165.881500 
	C53.688602,166.566818 61.874199,165.988312 70.791534,165.967804 
	C72.001068,165.976562 72.430283,165.999939 72.816559,166.385223 
	C70.168106,176.016769 67.135689,185.191025 65.039528,194.574448 
	C59.432682,219.673401 60.961266,245.192505 61.306782,270.617676 
	C61.349361,273.751038 62.066559,276.881989 62.552547,280.001373 
	C64.632019,293.348694 70.224907,305.348969 76.791687,316.971375 
	C66.507401,316.980896 56.189777,316.465179 45.946167,317.115387 
	C27.765789,318.269440 8.672080,304.560638 3.751061,288.462646 
	C3.396283,287.302032 2.294307,286.369873 1.269868,285.665741 
	C1.000000,256.645782 1.000000,227.291550 1.000000,197.468658 
z"/>
<path fill="#525CDD" opacity="1.000000" stroke="none" 
	d="
M443.062622,165.861023 
	C452.381836,165.907364 461.706177,166.171539 471.019073,165.951294 
	C486.788788,165.578354 504.261993,178.093613 510.030548,193.467270 
	C510.583801,194.941681 511.607880,196.239426 512.706665,197.309586 
	C513.000000,223.687561 513.000000,250.375122 512.782776,277.834625 
	C510.482880,289.703857 505.646576,299.360291 496.740295,306.447113 
	C492.524109,309.801941 487.551880,312.206604 482.922180,315.041748 
	C474.803436,315.694489 466.694397,316.556305 458.562897,316.935303 
	C451.775482,317.251678 444.961670,317.002411 437.793457,316.662415 
	C444.137604,305.700439 449.727722,294.407959 451.015259,281.896271 
	C452.471039,267.749359 452.463257,253.447968 452.987091,239.209885 
	C453.913361,214.032532 449.670563,189.672119 441.516785,165.977295 
	C442.238556,165.924652 442.650604,165.892838 443.062622,165.861023 
z"/>
<path fill="#00429D" opacity="1.000000" stroke="none" 
	d="
M482.951324,315.507812 
	C487.551880,312.206604 492.524109,309.801941 496.740295,306.447113 
	C505.646576,299.360291 510.482880,289.703857 512.782776,278.303284 
	C513.000000,311.687561 513.000000,345.375122 513.000000,379.531342 
	C512.334961,380.674957 511.271881,381.245026 511.062408,382.040039 
	C503.026428,412.536011 484.006409,433.579468 455.432617,446.105103 
	C445.465332,450.474335 434.902435,453.052887 423.843201,453.017456 
	C405.878448,452.959930 387.913330,453.014618 369.548309,452.676239 
	C373.469482,442.305023 372.633667,432.133545 370.009216,421.911438 
	C388.484650,421.939972 406.979034,422.489868 425.429077,421.819611 
	C438.409271,421.348022 450.060150,415.990662 459.923462,407.486298 
	C471.110046,397.841003 478.882629,385.957550 481.381958,371.142853 
	C482.229156,366.121277 482.848663,361.004456 482.927765,355.921143 
	C483.134979,342.608337 482.986908,329.289978 482.951324,315.507812 
z"/>
<path fill="#D7E3F0" opacity="1.000000" stroke="none" 
	d="
M441.207062,165.998138 
	C449.670563,189.672119 453.913361,214.032532 452.987091,239.209885 
	C452.463257,253.447968 452.471039,267.749359 451.015259,281.896271 
	C449.727722,294.407959 444.137604,305.700439 437.341492,316.636688 
	C431.380798,323.928040 426.138428,331.591095 419.481598,337.717133 
	C409.724976,346.695709 398.202759,353.260895 385.393921,357.208771 
	C376.076141,360.080658 366.635315,362.083435 356.773285,362.047485 
	C323.820740,361.927399 290.867493,361.994019 257.454407,361.454346 
	C257.026764,346.250702 257.059296,331.581787 257.552002,316.918701 
	C278.338348,316.927032 298.671021,317.253448 318.989075,316.847504 
	C342.743591,316.372864 363.860321,308.311188 380.748169,291.451050 
	C401.790405,270.443359 410.643250,244.933884 407.123016,215.063354 
	C402.210541,173.378662 363.836273,138.306015 321.958679,137.998611 
	C300.300903,137.839615 278.640930,137.973465 256.982300,137.507919 
	C256.984924,104.412628 256.987244,71.784447 256.989563,39.156258 
	C270.451904,40.474384 284.050049,41.005230 297.344330,43.297840 
	C316.585876,46.616055 334.706970,53.687313 351.909149,62.980980 
	C364.455261,69.759155 376.398590,77.501984 386.722076,87.355705 
	C395.228180,95.474731 403.091003,104.267731 411.642883,113.227875 
	C423.936615,129.918869 434.138733,147.084961 441.207062,165.998138 
z"/>
<path fill="#F0F5FA" opacity="1.000000" stroke="none" 
	d="
M257.091827,316.912872 
	C257.059296,331.581787 257.026764,346.250702 256.990387,361.377991 
	C221.519180,361.890747 186.024033,362.805145 150.595474,361.659943 
	C130.991837,361.026245 113.201744,352.958313 97.721436,340.340637 
	C89.654045,333.765076 82.648849,326.376587 76.887039,317.326660 
	C70.224907,305.348969 64.632019,293.348694 62.552547,280.001373 
	C62.066559,276.881989 61.349361,273.751038 61.306782,270.617676 
	C60.961266,245.192505 59.432682,219.673401 65.039528,194.574448 
	C67.135689,185.191025 70.168106,176.016769 73.004913,166.067245 
	C80.004799,147.819473 88.981575,131.480637 100.375206,116.474953 
	C101.149910,115.454666 101.572044,114.166695 102.158157,113.003220 
	C108.346535,106.260269 114.138107,99.093307 120.801315,92.857758 
	C137.515518,77.216309 156.048996,64.082619 177.592514,55.897846 
	C189.963287,51.197964 202.544907,46.870560 215.329254,43.506527 
	C223.737015,41.294132 232.664764,41.001873 241.380463,40.037643 
	C246.259796,39.497841 251.181534,39.341183 256.536865,39.084068 
	C256.987244,71.784447 256.984924,104.412628 256.986816,137.519470 
	C256.991058,137.998108 256.976654,137.982742 256.510010,137.984741 
	C234.897263,137.990417 213.750992,137.954453 192.605194,138.037323 
	C189.135864,138.050903 185.647247,138.431992 182.203552,138.905243 
	C135.514099,145.321686 99.612000,190.304565 106.948090,239.692581 
	C113.439476,283.393860 148.748398,315.227295 193.653046,316.849091 
	C214.770554,317.611786 235.939804,316.942322 257.087036,316.938568 
	C257.088440,316.955322 257.091827,316.912872 257.091827,316.912872 
z"/>
<path fill="#00347B" opacity="1.000000" stroke="none" 
	d="
M369.864716,421.599792 
	C372.633667,432.133545 373.469482,442.305023 369.081421,452.706299 
	C363.885223,464.759918 354.780090,472.572723 342.460480,473.646820 
	C326.689819,475.021912 310.645477,474.886078 294.835388,473.763275 
	C275.683502,472.403168 260.567139,449.663300 264.541046,430.728455 
	C268.012390,414.188385 277.593353,403.792480 293.893707,399.587250 
	C295.784790,399.099396 297.822418,399.033661 299.793243,399.024689 
	C310.948059,398.973877 322.108459,399.217621 333.257050,398.949402 
	C350.325867,398.538757 362.326508,406.071289 369.864716,421.599792 
z"/>
<path fill="#01439D" opacity="1.000000" stroke="none" 
	d="
M102.099594,112.538239 
	C101.572044,114.166695 101.149910,115.454666 100.375206,116.474953 
	C88.981575,131.480637 80.004799,147.819473 73.047844,165.705338 
	C72.430283,165.999939 72.001068,165.976562 71.252792,165.909393 
	C70.956177,137.379349 70.974113,108.893097 71.003471,80.406860 
	C71.014107,70.090553 76.812538,63.988422 86.555641,64.002312 
	C96.249435,64.016129 101.982979,70.172874 101.998413,80.588554 
	C102.013962,91.083458 102.026932,101.578354 102.099594,112.538239 
z"/>
<path fill="#00347B" opacity="1.000000" stroke="none" 
	d="
M441.516785,165.977295 
	C434.138733,147.084961 423.936615,129.918869 411.962402,113.349663 
	C411.918854,102.032394 411.947693,91.059120 412.004211,80.085976 
	C412.055573,70.122635 417.986145,63.994667 427.531372,64.002174 
	C437.054077,64.009666 442.979462,70.148445 442.990356,80.140381 
	C443.021179,108.408287 443.014435,136.676224 443.042542,165.402588 
	C442.650604,165.892838 442.238556,165.924652 441.516785,165.977295 
z"/>
<path fill="#A0B6DB" opacity="1.000000" stroke="none" 
	d="
M256.986511,137.986572 
	C278.640930,137.973465 300.300903,137.839615 321.958679,137.998611 
	C363.836273,138.306015 402.210541,173.378662 407.123016,215.063354 
	C410.643250,244.933884 401.790405,270.443359 380.748169,291.451050 
	C363.860321,308.311188 342.743591,316.372864 318.989075,316.847504 
	C298.671021,317.253448 278.338348,316.927032 257.552002,316.918701 
	C257.091827,316.912872 257.088440,316.955322 257.069458,316.477448 
	C257.020660,306.352295 256.990784,296.705048 257.430725,287.015991 
	C278.051239,286.966125 298.202118,287.013275 318.352570,286.938110 
	C356.108521,286.797302 384.233276,252.396667 376.938751,215.352371 
	C371.847717,189.498199 349.050385,169.027756 322.834564,168.056000 
	C300.881165,167.242233 278.881348,167.680435 256.909851,167.122925 
	C256.937286,157.115280 256.956970,147.549011 256.976654,137.982742 
	C256.976654,137.982742 256.991058,137.998108 256.986511,137.986572 
z"/>
<path fill="#D7E3F0" opacity="1.000000" stroke="none" 
	d="
M256.510010,137.984741 
	C256.956970,147.549011 256.937286,157.115280 256.895844,167.219543 
	C256.874084,167.757538 256.965942,167.929840 256.501160,167.884308 
	C236.397202,167.831970 216.758026,167.807556 197.118942,167.836304 
	C193.961029,167.840912 190.767197,167.821854 187.651367,168.255203 
	C156.540283,172.582077 134.027802,200.261612 136.102890,231.517761 
	C138.124771,261.972382 164.109695,286.428802 195.175232,286.770905 
	C215.810120,286.998138 236.449829,286.788727 257.016052,286.827759 
	C256.944702,286.880768 256.960968,287.057770 256.960938,287.057770 
	C256.990784,296.705048 257.020660,306.352295 257.068054,316.460693 
	C235.939804,316.942322 214.770554,317.611786 193.653046,316.849091 
	C148.748398,315.227295 113.439476,283.393860 106.948090,239.692581 
	C99.612000,190.304565 135.514099,145.321686 182.203552,138.905243 
	C185.647247,138.431992 189.135864,138.050903 192.605194,138.037323 
	C213.750992,137.954453 234.897263,137.990417 256.510010,137.984741 
z"/>
<path fill="#00347B" opacity="1.000000" stroke="none" 
	d="
M256.888092,167.660919 
	C278.881348,167.680435 300.881165,167.242233 322.834564,168.056000 
	C349.050385,169.027756 371.847717,189.498199 376.938751,215.352371 
	C384.233276,252.396667 356.108521,286.797302 318.352570,286.938110 
	C298.202118,287.013275 278.051239,286.966125 257.430756,287.015991 
	C256.960968,287.057770 256.944702,286.880768 257.000732,286.373657 
	C257.026489,246.554337 256.996216,207.242081 256.965942,167.929840 
	C256.965942,167.929840 256.874084,167.757538 256.888092,167.660919 
M301.450897,238.694565 
	C305.728058,246.118088 311.757263,249.114639 318.641235,247.238266 
	C326.034821,245.222977 329.996033,239.692886 330.072083,231.231155 
	C330.100433,228.077240 330.151917,224.920074 330.048523,221.769119 
	C329.783966,213.706284 324.222717,207.574051 316.708679,206.952271 
	C308.650848,206.285492 301.592346,211.073685 300.617188,219.212036 
	C299.881653,225.350128 300.908813,231.699448 301.450897,238.694565 
z"/>
<path fill="#01439D" opacity="1.000000" stroke="none" 
	d="
M256.501129,167.884308 
	C256.996216,207.242081 257.026489,246.554337 257.072083,286.320679 
	C236.449829,286.788727 215.810120,286.998138 195.175232,286.770905 
	C164.109695,286.428802 138.124771,261.972382 136.102890,231.517761 
	C134.027802,200.261612 156.540283,172.582077 187.651367,168.255203 
	C190.767197,167.821854 193.961029,167.840912 197.118942,167.836304 
	C216.758026,167.807556 236.397202,167.831970 256.501129,167.884308 
M212.687164,216.210266 
	C208.728348,208.763870 202.353058,205.487518 195.206635,207.226791 
	C188.167953,208.939835 183.986938,214.905563 183.923111,223.368622 
	C183.899338,226.522629 183.844391,229.679855 183.950409,232.830688 
	C184.221329,240.881149 190.113388,247.159500 197.879990,247.778046 
	C205.166870,248.358383 212.577927,242.961746 213.434021,235.240402 
	C214.099060,229.242188 213.165192,223.066696 212.687164,216.210266 
z"/>
<path fill="#515CDC" opacity="1.000000" stroke="none" 
	d="
M301.301147,238.324646 
	C300.908813,231.699448 299.881653,225.350128 300.617188,219.212036 
	C301.592346,211.073685 308.650848,206.285492 316.708679,206.952271 
	C324.222717,207.574051 329.783966,213.706284 330.048523,221.769119 
	C330.151917,224.920074 330.100433,228.077240 330.072083,231.231155 
	C329.996033,239.692886 326.034821,245.222977 318.641235,247.238266 
	C311.757263,249.114639 305.728058,246.118088 301.301147,238.324646 
z"/>
<path fill="#4692FE" opacity="1.000000" stroke="none" 
	d="
M212.814575,216.590134 
	C213.165192,223.066696 214.099060,229.242188 213.434021,235.240402 
	C212.577927,242.961746 205.166870,248.358383 197.879990,247.778046 
	C190.113388,247.159500 184.221329,240.881149 183.950409,232.830688 
	C183.844391,229.679855 183.899338,226.522629 183.923111,223.368622 
	C183.986938,214.905563 188.167953,208.939835 195.206635,207.226791 
	C202.353058,205.487518 208.728348,208.763870 212.814575,216.590134 
z"/>
</svg>